<svg xmlns="http://www.w3.org/2000/svg" viewBox="0 0 80 80"><path d="M63.697 53.488c-3.974 0-7.209 3.235-7.209 7.21s3.235 7.207 7.21 7.207 7.207-3.233 7.207-7.208-3.233-7.209-7.208-7.209zm1 12.316v-1.56h-2v1.56a5.217 5.217 0 0 1-4.108-4.107h1.56v-2h-1.56a5.218 5.218 0 0 1 4.108-4.108v1.56h2v-1.56a5.217 5.217 0 0 1 4.107 4.108h-1.56v2h1.56a5.216 5.216 0 0 1-4.107 4.107z"/><path d="M62.697 59.811h2v1.773h-2zM45.145 32.928c3.439 0 6.237-2.792 6.237-6.224a6.245 6.245 0 0 0-6.237-6.238c-3.432 0-6.224 2.799-6.224 6.238a6.23 6.23 0 0 0 6.224 6.224zm0-10.462a4.242 4.242 0 0 1 4.237 4.238c0 2.33-1.9 4.224-4.237 4.224a4.228 4.228 0 0 1-4.224-4.224c0-2.337 1.894-4.238 4.224-4.238z"/><path d="M68 50.25V8H5v57h48.25c1.696 4.103 5.738 7 10.447 7C69.93 72 75 66.93 75 60.697c0-4.709-2.896-8.751-7-10.448zM66 10v39.63a11.243 11.243 0 0 0-9.37 2.258l-5.668-7.386a3.406 3.406 0 0 0-5.072-.144l-5.926 7.997-15.453-23.771a3.404 3.404 0 0 0-2.804-1.47l-.058.001c-1.141.019-2.192.604-2.83 1.599L7 48.857V10h59zM7 52.808l13.521-23.047a1.388 1.388 0 0 1 1.162-.647c.49.018.91.214 1.167.584L44.499 63H7V52.808zM46.885 63l-5.758-8.857 6.25-8.446c.275-.268.65-.401 1.021-.4.407.013.776.19 1.01.46l5.775 7.53A11.244 11.244 0 0 0 52.63 63h-5.746zm16.812 7c-5.13 0-9.303-4.173-9.303-9.303s4.173-9.303 9.303-9.303S73 55.567 73 60.697 68.827 70 63.697 70z"/><path d="M44.151 15.363h2v3.487h-2zM44.151 34.543h2v3.487h-2zM52.998 25.697h3.486v2h-3.486zM33.818 25.697h3.487v2h-3.487zM36.43 19.39l1.415-1.415 2.465 2.466-1.414 1.414zM49.992 32.952l1.414-1.414 2.466 2.465-1.415 1.415zM49.992 20.441l2.466-2.465 1.414 1.414-2.465 2.466zM36.43 34.003l2.466-2.465 1.414 1.414-2.465 2.466z"/></svg>